<svg width="48" height="19" viewBox="0 0 48 19" fill="none" xmlns="http://www.w3.org/2000/svg">
<g id="iconizer-cartao-elo 1" clip-path="url(#clip0_23_265)">
<g id="Group">
<g id="Group_2">
<path id="Vector" fill-rule="evenodd" clip-rule="evenodd" d="M7.49289 4.15771C8.04969 3.96815 8.63049 3.87338 9.21609 3.87338C11.8513 3.87338 14.0497 5.77887 14.5489 8.30788L18.2785 7.53471C17.4289 3.23489 13.6945 -0.00244141 9.22089 -0.00244141C8.19369 -0.00244141 7.20969 0.167157 6.28809 0.481413L7.49289 4.15771Z" fill="white"/>
<path id="Vector_2" fill-rule="evenodd" clip-rule="evenodd" d="M3.1584 16.6231L5.712 13.69C4.5696 12.6625 3.8544 11.166 3.8544 9.49496C3.8544 7.82391 4.5744 6.32746 5.712 5.30488L3.1584 2.37183C1.224 4.11769 0 6.66167 0 9.49994C0 12.3332 1.224 14.8822 3.1584 16.6231Z" fill="white"/>
<path id="Vector_3" fill-rule="evenodd" clip-rule="evenodd" d="M14.5536 10.6873C14.0496 13.2163 11.8512 15.1218 9.2208 15.1218C8.6352 15.1218 8.0496 15.027 7.4928 14.8374L6.2832 18.5187C7.2048 18.833 8.1936 19.0026 9.2208 19.0026C13.6944 19.0026 17.424 15.7702 18.2832 11.4704L14.5536 10.6873Z" fill="white"/>
<path id="Vector_4" fill-rule="evenodd" clip-rule="evenodd" d="M28.848 12.6176L28.7376 12.5477C28.4304 13.0615 27.96 13.4805 27.36 13.7499C26.2224 14.2687 25.1664 14.134 24.408 13.4406L24.3408 13.5504H24.336L23.0448 15.5706C23.3664 15.805 23.712 15.9995 24.072 16.1592C25.5024 16.7777 26.9616 16.7528 28.4016 16.0943C29.4432 15.6254 30.2592 14.9021 30.8208 13.9943L28.848 12.6176ZM24.8112 7.63436C23.6064 8.17309 22.9872 9.3503 23.1168 10.732L28.2144 8.44245C27.336 7.36999 26.1984 7.01583 24.8112 7.63436ZM21.4272 13.7898C21.2832 13.5404 21.1536 13.281 21.0384 13.0116C20.448 11.585 20.424 10.1135 20.9184 8.69685C21.4656 7.14552 22.5072 5.95334 23.856 5.34977C25.5504 4.58658 27.4272 4.73623 29.0496 5.74384C30.0816 6.36238 30.8112 7.31512 31.368 8.66692C31.44 8.8415 31.5024 9.02607 31.56 9.1807L21.4272 13.7898ZM35.1072 2.37183V13.6002L36.7824 14.3086L35.832 16.6231L33.984 15.825C33.5712 15.6354 33.288 15.3511 33.072 15.0269C32.8656 14.6976 32.7168 14.2437 32.7168 13.6351V2.37183H35.1072ZM39.4416 10.742C39.4416 11.6598 39.816 12.5328 40.4784 13.1363L38.7648 15.1366C37.5552 14.0192 36.8688 12.418 36.8736 10.742C36.8736 9.06098 37.5648 7.46476 38.7744 6.3524L40.488 8.34767C39.8208 8.95124 39.4416 9.82418 39.4416 10.742ZM42.4896 13.9295C43.9632 13.9295 45.192 12.842 45.48 11.3905L48 11.9292C47.4768 14.6029 45.2064 16.6181 42.4896 16.6131C41.8848 16.6131 41.28 16.5083 40.704 16.3088L41.5248 13.7648C41.8272 13.8696 42.1488 13.9295 42.4896 13.9295ZM42.4944 4.8759C45.2112 4.8759 47.4816 6.89611 48 9.57477L45.48 10.1085C45.1968 8.62701 43.944 7.55954 42.4944 7.55954C42.168 7.55954 41.8368 7.61441 41.5296 7.72415L40.7184 5.18018C41.2896 4.97566 41.8896 4.8759 42.4944 4.8759Z" fill="white"/>
</g>
</g>
</g>
<defs>
<clipPath id="clip0_23_265">
<rect width="48" height="19" fill="white"/>
</clipPath>
</defs>
</svg>
