<svg width="263" height="41" viewBox="0 0 263 41" fill="none" xmlns="http://www.w3.org/2000/svg">
<path d="M2.052 32.17C2.52 32.494 3.348 32.89 4.536 33.358C5.724 33.79 7.128 34.006 8.748 34.006C10.152 34.006 11.304 33.772 12.204 33.304C13.104 32.8 13.788 32.062 14.256 31.09C14.76 30.118 15.084 28.858 15.228 27.31C15.408 25.762 15.498 23.908 15.498 21.748V1.66H22.95V21.154C22.95 24.034 22.788 26.662 22.464 29.038C22.14 31.414 21.51 33.466 20.574 35.194C19.638 36.922 18.216 38.254 16.308 39.19C14.436 40.126 11.934 40.594 8.802 40.594C7.074 40.594 5.526 40.396 4.158 40C2.79 39.604 1.53 39.01 0.378 38.218L2.052 32.17ZM29.1275 29.416V11.704H36.3635V27.85C36.3635 30.01 36.7595 31.648 37.5515 32.764C38.3435 33.844 39.5135 34.384 41.0615 34.384C41.9975 34.384 42.9155 34.204 43.8155 33.844C44.7515 33.448 45.5975 32.872 46.3535 32.116C47.1455 31.36 47.8115 30.406 48.3515 29.254V11.704H55.5875V31.9C55.5875 32.656 55.7135 33.196 55.9655 33.52C56.2535 33.844 56.7035 34.042 57.3155 34.114V40C56.5955 40.108 55.9835 40.18 55.4795 40.216C55.0115 40.288 54.5795 40.324 54.1835 40.324C52.8875 40.324 51.8255 40.036 50.9975 39.46C50.2055 38.848 49.7375 38.02 49.5935 36.976L49.4315 34.708C48.1715 36.616 46.5515 38.074 44.5715 39.082C42.5915 40.054 40.4135 40.54 38.0375 40.54C35.1215 40.54 32.9075 39.604 31.3955 37.732C29.8835 35.824 29.1275 33.052 29.1275 29.416ZM73.2004 40.54C70.7884 40.54 68.4844 40.144 66.2884 39.352C64.0924 38.56 62.2024 37.39 60.6184 35.842L63.2104 31.144C64.9024 32.512 66.5584 33.52 68.1784 34.168C69.8344 34.816 71.4184 35.14 72.9304 35.14C74.3344 35.14 75.4504 34.888 76.2784 34.384C77.1424 33.88 77.5744 33.124 77.5744 32.116C77.5744 31.432 77.3404 30.91 76.8724 30.55C76.4044 30.154 75.7204 29.812 74.8204 29.524C73.9564 29.236 72.8944 28.912 71.6344 28.552C69.5464 27.868 67.8004 27.202 66.3964 26.554C64.9924 25.906 63.9304 25.096 63.2104 24.124C62.5264 23.116 62.1844 21.838 62.1844 20.29C62.1844 18.418 62.6524 16.816 63.5884 15.484C64.5604 14.116 65.8924 13.054 67.5844 12.298C69.3124 11.542 71.3284 11.164 73.6324 11.164C75.6484 11.164 77.5564 11.488 79.3564 12.136C81.1564 12.748 82.7944 13.756 84.2704 15.16L81.3544 19.75C79.9144 18.634 78.5464 17.824 77.2504 17.32C75.9544 16.78 74.6404 16.51 73.3084 16.51C72.5524 16.51 71.8324 16.6 71.1484 16.78C70.5004 16.96 69.9604 17.266 69.5284 17.698C69.1324 18.094 68.9344 18.67 68.9344 19.426C68.9344 20.11 69.1144 20.65 69.4744 21.046C69.8704 21.406 70.4464 21.73 71.2024 22.018C71.9944 22.306 72.9484 22.63 74.0644 22.99C76.3324 23.638 78.2404 24.304 79.7884 24.988C81.3724 25.672 82.5604 26.518 83.3524 27.526C84.1444 28.498 84.5404 29.848 84.5404 31.576C84.5404 34.384 83.5144 36.58 81.4624 38.164C79.4104 39.748 76.6564 40.54 73.2004 40.54ZM106.26 38.542C105.648 38.794 104.91 39.082 104.046 39.406C103.182 39.73 102.246 39.982 101.238 40.162C100.266 40.378 99.2758 40.486 98.2678 40.486C96.9358 40.486 95.7118 40.252 94.5958 39.784C93.4798 39.316 92.5798 38.578 91.8958 37.57C91.2478 36.526 90.9238 35.176 90.9238 33.52V17.266H87.1978V11.704H90.9238V2.524H98.1598V11.704H104.1V17.266H98.1598V31.09C98.1958 32.062 98.4658 32.764 98.9698 33.196C99.4738 33.628 100.104 33.844 100.86 33.844C101.616 33.844 102.354 33.718 103.074 33.466C103.794 33.214 104.37 32.998 104.802 32.818L106.26 38.542ZM133.572 11.704C133.32 11.452 132.852 11.11 132.168 10.678C131.52 10.246 130.71 9.832 129.738 9.436C128.802 9.04 127.776 8.698 126.66 8.41C125.544 8.086 124.41 7.924 123.258 7.924C121.242 7.924 119.712 8.302 118.668 9.058C117.66 9.814 117.156 10.876 117.156 12.244C117.156 13.288 117.48 14.116 118.128 14.728C118.776 15.34 119.748 15.862 121.044 16.294C122.34 16.726 123.96 17.194 125.904 17.698C128.424 18.31 130.602 19.066 132.438 19.966C134.31 20.83 135.732 21.982 136.704 23.422C137.712 24.826 138.216 26.698 138.216 29.038C138.216 31.09 137.838 32.854 137.082 34.33C136.326 35.77 135.282 36.94 133.95 37.84C132.618 38.74 131.106 39.406 129.414 39.838C127.722 40.234 125.922 40.432 124.014 40.432C122.106 40.432 120.198 40.234 118.29 39.838C116.382 39.442 114.546 38.884 112.782 38.164C111.018 37.408 109.398 36.508 107.922 35.464L111.216 29.038C111.54 29.362 112.116 29.794 112.944 30.334C113.772 30.838 114.78 31.36 115.968 31.9C117.156 32.404 118.452 32.836 119.856 33.196C121.26 33.556 122.682 33.736 124.122 33.736C126.138 33.736 127.668 33.394 128.712 32.71C129.756 32.026 130.278 31.054 130.278 29.794C130.278 28.642 129.864 27.742 129.036 27.094C128.208 26.446 127.056 25.888 125.58 25.42C124.104 24.916 122.358 24.376 120.342 23.8C117.93 23.116 115.914 22.36 114.294 21.532C112.674 20.668 111.468 19.588 110.676 18.292C109.884 16.996 109.488 15.376 109.488 13.432C109.488 10.804 110.1 8.608 111.324 6.844C112.584 5.044 114.276 3.694 116.4 2.794C118.524 1.858 120.882 1.39 123.474 1.39C125.274 1.39 126.966 1.588 128.55 1.984C130.17 2.38 131.682 2.902 133.086 3.55C134.49 4.198 135.75 4.9 136.866 5.656L133.572 11.704ZM169.338 40H162.102V24.124C162.102 21.928 161.67 20.29 160.806 19.21C159.978 18.13 158.826 17.59 157.35 17.59C156.486 17.59 155.568 17.842 154.596 18.346C153.624 18.85 152.742 19.552 151.95 20.452C151.194 21.316 150.636 22.324 150.276 23.476V40H143.04V0.579999H150.276V16.942C151.32 15.142 152.742 13.738 154.542 12.73C156.342 11.722 158.304 11.218 160.428 11.218C162.264 11.218 163.758 11.542 164.91 12.19C166.062 12.802 166.962 13.648 167.61 14.728C168.258 15.772 168.708 16.96 168.96 18.292C169.212 19.588 169.338 20.938 169.338 22.342V40ZM188.698 40.54C186.394 40.54 184.324 40.162 182.488 39.406C180.652 38.614 179.086 37.534 177.79 36.166C176.53 34.798 175.558 33.232 174.874 31.468C174.19 29.704 173.848 27.85 173.848 25.906C173.848 23.926 174.19 22.054 174.874 20.29C175.558 18.526 176.53 16.96 177.79 15.592C179.086 14.224 180.652 13.162 182.488 12.406C184.324 11.614 186.394 11.218 188.698 11.218C191.002 11.218 193.054 11.614 194.854 12.406C196.69 13.162 198.256 14.224 199.552 15.592C200.848 16.96 201.82 18.526 202.468 20.29C203.152 22.054 203.494 23.926 203.494 25.906C203.494 27.85 203.152 29.704 202.468 31.468C201.82 33.232 200.848 34.798 199.552 36.166C198.292 37.534 196.744 38.614 194.908 39.406C193.072 40.162 191.002 40.54 188.698 40.54ZM181.3 25.906C181.3 27.562 181.624 29.038 182.272 30.334C182.92 31.594 183.802 32.584 184.918 33.304C186.034 34.024 187.294 34.384 188.698 34.384C190.066 34.384 191.308 34.024 192.424 33.304C193.54 32.548 194.422 31.54 195.07 30.28C195.754 28.984 196.096 27.508 196.096 25.852C196.096 24.232 195.754 22.774 195.07 21.478C194.422 20.182 193.54 19.174 192.424 18.454C191.308 17.734 190.066 17.374 188.698 17.374C187.294 17.374 186.034 17.752 184.918 18.508C183.802 19.228 182.92 20.236 182.272 21.532C181.624 22.792 181.3 24.25 181.3 25.906ZM221.5 40.54C219.232 40.54 217.18 40.162 215.344 39.406C213.508 38.614 211.942 37.552 210.646 36.22C209.35 34.852 208.342 33.304 207.622 31.576C206.938 29.812 206.596 27.958 206.596 26.014C206.596 23.314 207.19 20.848 208.378 18.616C209.602 16.384 211.33 14.602 213.562 13.27C215.83 11.902 218.494 11.218 221.554 11.218C224.65 11.218 227.296 11.902 229.492 13.27C231.688 14.602 233.362 16.384 234.514 18.616C235.702 20.812 236.296 23.188 236.296 25.744C236.296 26.176 236.278 26.626 236.242 27.094C236.206 27.526 236.17 27.886 236.134 28.174H214.264C214.408 29.614 214.822 30.874 215.506 31.954C216.226 33.034 217.126 33.862 218.206 34.438C219.322 34.978 220.51 35.248 221.77 35.248C223.21 35.248 224.56 34.906 225.82 34.222C227.116 33.502 227.998 32.566 228.466 31.414L234.676 33.142C233.992 34.582 233.002 35.86 231.706 36.976C230.446 38.092 228.952 38.974 227.224 39.622C225.496 40.234 223.588 40.54 221.5 40.54ZM214.102 23.584H228.898C228.754 22.144 228.34 20.902 227.656 19.858C227.008 18.778 226.144 17.95 225.064 17.374C223.984 16.762 222.778 16.456 221.446 16.456C220.15 16.456 218.962 16.762 217.882 17.374C216.838 17.95 215.974 18.778 215.29 19.858C214.642 20.902 214.246 22.144 214.102 23.584ZM251.126 40.54C248.714 40.54 246.41 40.144 244.214 39.352C242.018 38.56 240.128 37.39 238.544 35.842L241.136 31.144C242.828 32.512 244.484 33.52 246.104 34.168C247.76 34.816 249.344 35.14 250.856 35.14C252.26 35.14 253.376 34.888 254.204 34.384C255.068 33.88 255.5 33.124 255.5 32.116C255.5 31.432 255.266 30.91 254.798 30.55C254.33 30.154 253.646 29.812 252.746 29.524C251.882 29.236 250.82 28.912 249.56 28.552C247.472 27.868 245.726 27.202 244.322 26.554C242.918 25.906 241.856 25.096 241.136 24.124C240.452 23.116 240.11 21.838 240.11 20.29C240.11 18.418 240.578 16.816 241.514 15.484C242.486 14.116 243.818 13.054 245.51 12.298C247.238 11.542 249.254 11.164 251.558 11.164C253.574 11.164 255.482 11.488 257.282 12.136C259.082 12.748 260.72 13.756 262.196 15.16L259.28 19.75C257.84 18.634 256.472 17.824 255.176 17.32C253.88 16.78 252.566 16.51 251.234 16.51C250.478 16.51 249.758 16.6 249.074 16.78C248.426 16.96 247.886 17.266 247.454 17.698C247.058 18.094 246.86 18.67 246.86 19.426C246.86 20.11 247.04 20.65 247.4 21.046C247.796 21.406 248.372 21.73 249.128 22.018C249.92 22.306 250.874 22.63 251.99 22.99C254.258 23.638 256.166 24.304 257.714 24.988C259.298 25.672 260.486 26.518 261.278 27.526C262.07 28.498 262.466 29.848 262.466 31.576C262.466 34.384 261.44 36.58 259.388 38.164C257.336 39.748 254.582 40.54 251.126 40.54Z" fill="black"/>
</svg>
