<svg width="33" height="24" viewBox="0 0 33 24" fill="none" xmlns="http://www.w3.org/2000/svg">
<g id="iconizer-mastercard-2 1" clip-path="url(#clip0_23_257)">
<g id="Group">
<g id="Group_2">
<path id="Vector" d="M32.3478 23.6733V23.735H32.4093C32.4209 23.7352 32.4323 23.7325 32.4423 23.7272C32.4505 23.7218 32.4551 23.7129 32.4547 23.7036C32.4551 23.6944 32.4504 23.6857 32.4423 23.6806C32.4324 23.675 32.4209 23.6723 32.4093 23.6727H32.3478V23.6733ZM32.41 23.6297C32.4364 23.6282 32.4625 23.6353 32.4839 23.6497C32.5013 23.6631 32.5109 23.6833 32.5098 23.7044C32.5106 23.7224 32.503 23.7399 32.489 23.7523C32.4725 23.7657 32.4518 23.7738 32.43 23.7753L32.5125 23.8632H32.4489L32.373 23.7759H32.3484V23.8632H32.2953V23.6299H32.4108L32.41 23.6297ZM32.3935 23.9437C32.4214 23.944 32.449 23.9387 32.4745 23.9283C32.4991 23.9184 32.5215 23.9042 32.5405 23.8865C32.5595 23.8688 32.5747 23.8479 32.5852 23.8248C32.6069 23.7759 32.6069 23.721 32.5852 23.6721C32.5745 23.6491 32.5594 23.6282 32.5405 23.6104C32.5215 23.5927 32.4991 23.5785 32.4745 23.5686C32.4488 23.5588 32.4213 23.5538 32.3935 23.5541C32.3652 23.5539 32.3372 23.5588 32.311 23.5686C32.2858 23.5783 32.2629 23.5925 32.2435 23.6104C32.1838 23.6676 32.1665 23.7526 32.1995 23.8264C32.2095 23.8495 32.2245 23.8705 32.2435 23.8881C32.2629 23.9059 32.2858 23.9201 32.311 23.9299C32.3371 23.9403 32.3651 23.9455 32.3935 23.9453M32.3935 23.498C32.466 23.4979 32.5356 23.5245 32.5874 23.572C32.6123 23.5948 32.6322 23.622 32.6458 23.6521C32.6743 23.7144 32.6743 23.7849 32.6458 23.8472C32.6318 23.877 32.612 23.9042 32.5874 23.9272C32.5621 23.9499 32.5326 23.9682 32.5004 23.9812C32.4666 23.9946 32.4302 24.0015 32.3935 24.0013C32.3563 24.0015 32.3195 23.9947 32.2852 23.9812C32.2527 23.9685 32.223 23.9502 32.1976 23.9272C32.173 23.9034 32.1534 23.8753 32.14 23.8446C32.1116 23.7822 32.1116 23.7118 32.14 23.6494C32.1537 23.6194 32.1735 23.5922 32.1985 23.5694C32.2234 23.546 32.2533 23.5277 32.2861 23.5154C32.3203 23.5019 32.3572 23.4951 32.3943 23.4954M7.12869 22.5967C7.12869 22.1518 7.44054 21.7862 7.95022 21.7862C8.4373 21.7862 8.76598 22.136 8.76598 22.5967C8.76598 23.0575 8.4373 23.4073 7.95022 23.4073C7.44054 23.4073 7.12869 23.0417 7.12869 22.5967ZM9.32121 22.5967V21.3304H8.73232V21.6389C8.54554 21.4109 8.26224 21.2679 7.87696 21.2679C7.11796 21.2679 6.52231 21.8245 6.52231 22.5974C6.52231 23.3703 7.11763 23.9268 7.87696 23.9268C8.26207 23.9268 8.54554 23.7836 8.73232 23.5558V23.8632H9.32055V22.5967H9.32121ZM29.2189 22.5967C29.2189 22.1518 29.5307 21.7862 30.0406 21.7862C30.5282 21.7862 30.8563 22.136 30.8563 22.5967C30.8563 23.0575 30.5282 23.4073 30.0406 23.4073C29.5309 23.4073 29.2189 23.0417 29.2189 22.5967ZM31.4121 22.5967V20.314H30.8227V21.6389C30.6359 21.4109 30.3526 21.2679 29.9673 21.2679C29.2083 21.2679 28.6127 21.8245 28.6127 22.5974C28.6127 23.3703 29.208 23.9268 29.9673 23.9268C30.3526 23.9268 30.6359 23.7836 30.8227 23.5558V23.8632H31.4121V22.5967ZM16.63 21.7601C17.0095 21.7601 17.2533 21.9826 17.3155 22.3742H15.9103C15.9732 22.0086 16.2106 21.7601 16.6302 21.7601M16.6419 21.2666C15.8483 21.2666 15.2931 21.8064 15.2931 22.596C15.2931 23.401 15.8706 23.9254 16.6814 23.9254C17.0892 23.9254 17.4628 23.8302 17.7915 23.5706L17.5029 23.1627C17.2759 23.3323 16.9868 23.4275 16.715 23.4275C16.3355 23.4275 15.99 23.2632 15.905 22.8074H17.9159C17.9217 22.739 17.9276 22.6699 17.9276 22.5958C17.9217 21.8066 17.3996 21.2664 16.6416 21.2664M23.7514 22.5958C23.7514 22.1508 24.0633 21.7853 24.573 21.7853C25.0601 21.7853 25.3887 22.1351 25.3887 22.5958C25.3887 23.0565 25.0601 23.4064 24.573 23.4064C24.0633 23.4064 23.7513 23.0408 23.7513 22.5958M25.9438 22.5958V21.3304H25.3552V21.6389C25.1678 21.4109 24.8852 21.2679 24.4999 21.2679C23.7409 21.2679 23.1452 21.8245 23.1452 22.5974C23.1452 23.3703 23.7406 23.9268 24.4999 23.9268C24.8852 23.9268 25.1678 23.7836 25.3552 23.5558V23.8632H25.944V22.5967L25.9438 22.5958ZM20.4259 22.5958C20.4259 23.3638 20.9978 23.9252 21.8706 23.9252C22.2785 23.9252 22.5503 23.8404 22.8441 23.6234L22.5613 23.1784C22.3402 23.3269 22.108 23.4064 21.8518 23.4064C21.3817 23.401 21.036 23.0832 21.036 22.5958C21.036 22.1084 21.3817 21.7908 21.8518 21.7853C22.1074 21.7853 22.3395 21.8647 22.5613 22.0132L22.8441 21.5683C22.5498 21.3512 22.278 21.2664 21.8706 21.2664C20.9978 21.2664 20.4259 21.8277 20.4259 22.5958ZM28.0175 21.2664C27.6778 21.2664 27.4565 21.4149 27.3036 21.6374V21.3304H26.72V23.8618H27.3095V22.4428C27.3095 22.0239 27.5021 21.7911 27.887 21.7911C28.0131 21.7894 28.1382 21.8111 28.2553 21.8548L28.4368 21.336C28.3064 21.288 28.1365 21.2669 28.0172 21.2669M12.2326 21.5317C11.9493 21.3571 11.5589 21.2669 11.1283 21.2669C10.4422 21.2669 10.0005 21.5743 10.0005 22.0773C10.0005 22.49 10.3294 22.7447 10.9349 22.8241L11.2131 22.8611C11.536 22.9035 11.6885 22.983 11.6885 23.1259C11.6885 23.3217 11.474 23.4333 11.0712 23.4333C10.6633 23.4333 10.369 23.3115 10.1705 23.1685L9.89376 23.5978C10.2167 23.8202 10.6245 23.9263 11.0662 23.9263C11.8483 23.9263 12.3016 23.582 12.3016 23.1C12.3016 22.655 11.9449 22.4223 11.3555 22.3429L11.078 22.3052C10.823 22.2744 10.6188 22.2264 10.6188 22.0567C10.6188 21.8717 10.8113 21.7603 11.1344 21.7603C11.4801 21.7603 11.8147 21.8821 11.9787 21.9773L12.2336 21.5323L12.2326 21.5317ZM19.831 21.2673C19.4913 21.2673 19.27 21.4159 19.1178 21.6383V21.3304H18.5341V23.8618H19.123V22.4428C19.123 22.0239 19.3156 21.7911 19.7005 21.7911C19.8266 21.7894 19.9518 21.8111 20.0688 21.8548L20.2503 21.336C20.12 21.288 19.95 21.2669 19.8307 21.2669M14.8058 21.3304H13.8429V20.5624H13.2475V21.3304H12.6983V21.8336H13.2475V22.9884C13.2475 23.5757 13.4914 23.9255 14.188 23.9255C14.4436 23.9255 14.738 23.8515 14.9248 23.7298L14.7547 23.2584C14.5789 23.3536 14.3864 23.4016 14.2333 23.4016C13.9389 23.4016 13.8429 23.2319 13.8429 22.9779V21.834H14.8058V21.3304ZM6.00157 23.8624V22.2738C6.00157 21.6755 5.59369 21.2729 4.93617 21.2675C4.59049 21.2621 4.23393 21.3627 3.98428 21.7179C3.7975 21.4372 3.50314 21.2675 3.08932 21.2675C2.80008 21.2675 2.51743 21.3469 2.29617 21.6434V21.3304H1.70679V23.8618H2.30079V22.4582C2.30079 22.0188 2.56149 21.7853 2.96409 21.7853C3.35514 21.7853 3.55297 22.0236 3.55297 22.4527V23.8615H4.14829V22.4579C4.14829 22.0185 4.42005 21.785 4.81093 21.785C5.21304 21.785 5.40493 22.0233 5.40493 22.4524V23.8612L6.00157 23.8624Z" fill="white"/>
<path id="Vector_2" d="M32.6835 15.442V15.0718H32.5803L32.461 15.3258L32.3424 15.0718H32.239V15.442H32.3122V15.1631L32.4237 15.4037H32.4997L32.6112 15.1625V15.442H32.6838H32.6835ZM32.0292 15.442V15.1352H32.1612V15.0727H31.824V15.1352H31.956V15.442H32.0286H32.0292Z" fill="#FFFDFB"/>
<path id="Vector_3" d="M20.9623 17.0294H12.0381V2.03711H20.9624L20.9623 17.0294Z" fill="#C8C6C4"/>
<path id="Vector_4" d="M12.6038 9.53379C12.6038 6.49261 14.1271 3.78351 16.4991 2.03765C14.7036 0.714171 12.4828 -0.00412444 10.1963 -0.000966192C4.56368 -0.000966192 -0.00219727 4.26783 -0.00219727 9.53379C-0.00219727 14.7998 4.56368 19.0685 10.1963 19.0685C12.4829 19.0717 14.7037 18.3534 16.4993 17.0299C14.1274 15.2844 12.6038 12.5751 12.6038 9.53379Z" fill="#DEDEDD"/>
<path id="Vector_5" d="M33.0021 9.53355C33.0021 14.7995 28.4362 19.0683 22.8036 19.0683C20.5167 19.0714 18.2957 18.3532 16.4998 17.0297C18.8725 15.2838 20.3957 12.5749 20.3957 9.53355C20.3957 6.49221 18.8725 3.78326 16.4998 2.0374C18.2956 0.713966 20.5166 -0.00431326 22.8034 -0.00121069C28.436 -0.00121069 33.0019 4.26758 33.0019 9.53355" fill="#DADAD9"/>
</g>
</g>
</g>
<defs>
<clipPath id="clip0_23_257">
<rect width="33" height="24" fill="white"/>
</clipPath>
</defs>
</svg>
