<svg width="25" height="22" viewBox="0 0 25 22" fill="none" xmlns="http://www.w3.org/2000/svg">
<path id="Vector" d="M18.3476 13.8714C19.8605 12.0985 20.5381 9.90053 20.2449 7.71709C19.9516 5.53364 18.7092 3.52579 16.766 2.09523C14.8229 0.664669 12.3224 -0.0830981 9.76484 0.00152875C7.20726 0.0861556 4.7812 0.996935 2.97202 2.55165C1.16285 4.10637 0.103978 6.19037 0.00725994 8.38672C-0.089458 10.5831 0.783107 12.7298 2.45039 14.3974C4.11766 16.065 6.4567 17.1305 8.99953 17.3808C11.5424 17.631 14.1015 17.0476 16.1649 15.7471H16.1633C16.2102 15.8008 16.2602 15.8518 16.3164 15.9014L22.3318 21.0671C22.6248 21.3188 23.0222 21.4603 23.4367 21.4605C23.8512 21.4606 24.2487 21.3193 24.5419 21.0677C24.8351 20.8161 24.9999 20.4749 25 20.1189C25.0001 19.763 24.8356 19.4216 24.5427 19.1699L18.5273 14.0042C18.4714 13.9557 18.4113 13.9108 18.3476 13.87V13.8714ZM18.7507 8.71379C18.7507 9.68288 18.5284 10.6425 18.0966 11.5378C17.6647 12.4331 17.0317 13.2466 16.2337 13.9319C15.4358 14.6171 14.4884 15.1607 13.4458 15.5316C12.4032 15.9024 11.2858 16.0933 10.1573 16.0933C9.02877 16.0933 7.91131 15.9024 6.86871 15.5316C5.82611 15.1607 4.87877 14.6171 4.0808 13.9319C3.28283 13.2466 2.64984 12.4331 2.21798 11.5378C1.78612 10.6425 1.56384 9.68288 1.56384 8.71379C1.56384 6.75663 2.46922 4.87962 4.0808 3.4957C5.69238 2.11178 7.87815 1.3343 10.1573 1.3343C12.4364 1.3343 14.6222 2.11178 16.2337 3.4957C17.8453 4.87962 18.7507 6.75663 18.7507 8.71379Z" fill="black"/>
</svg>
